HIERARCHY
ROOT root
{
	OFFSET 0.000000 0.000000 0.000000
	CHANNELS 6 Xposition Yposition Zposition Zrotation Yrotation Xrotation
	JOINT lhip
	{
		OFFSET 0.058581 -0.082280 -0.017664
		CHANNELS 3 Zrotation Yrotation Xrotation
		JOINT lknee
		{
			OFFSET 0.043451 -0.386469 0.008037
			CHANNELS 3 Zrotation Yrotation Xrotation
			JOINT lankle
			{
				OFFSET -0.014790 -0.426874 -0.037428
				CHANNELS 3 Zrotation Yrotation Xrotation
				JOINT ltoe
				{
					OFFSET 0.041054 -0.060286 0.122042
					CHANNELS 3 Zrotation Yrotation Xrotation
					End Site
					{
						OFFSET 0.000000 0.000000 0.000000
					}
				}
			}
		}
	}
	JOINT rhip
	{
		OFFSET -0.060310 -0.090513 -0.013543
		CHANNELS 3 Zrotation Yrotation Xrotation
		JOINT rknee
		{
			OFFSET -0.043257 -0.383688 -0.004843
			CHANNELS 3 Zrotation Yrotation Xrotation
			JOINT rankle
			{
				OFFSET 0.019056 -0.420046 -0.034562
				CHANNELS 3 Zrotation Yrotation Xrotation
				JOINT rtoe
				{
					OFFSET -0.034840 -0.062106 0.130323
					CHANNELS 3 Zrotation Yrotation Xrotation
					End Site
					{
						OFFSET 0.000000 0.000000 0.000000
					}
				}
			}
		}
	}
	JOINT lowerback
	{
		OFFSET 0.004439 0.124404 -0.038385
		CHANNELS 3 Zrotation Yrotation Xrotation
		JOINT upperback
		{
			OFFSET 0.004488 0.137956 0.026820
			CHANNELS 3 Zrotation Yrotation Xrotation
			JOINT chest
			{
				OFFSET -0.002265 0.056032 0.002855
				CHANNELS 3 Zrotation Yrotation Xrotation
				JOINT lowerneck
				{
					OFFSET -0.013390 0.211636 -0.033468
					CHANNELS 3 Zrotation Yrotation Xrotation
					JOINT upperneck
					{
						OFFSET 0.010113 0.088937 0.050410
						CHANNELS 3 Zrotation Yrotation Xrotation
						End Site
						{
							OFFSET 0.000000 0.000000 0.000000
						}
					}
				}
				JOINT lclavicle
				{
					OFFSET 0.071702 0.114000 -0.018898
					CHANNELS 3 Zrotation Yrotation Xrotation
					JOINT lshoulder
					{
						OFFSET 0.122921 0.045205 -0.019046
						CHANNELS 3 Zrotation Yrotation Xrotation
						JOINT lelbow
						{
							OFFSET 0.255332 -0.015649 -0.022946
							CHANNELS 3 Zrotation Yrotation Xrotation
							JOINT lwrist
							{
								OFFSET 0.265709 0.012698 -0.007375
								CHANNELS 3 Zrotation Yrotation Xrotation
								End Site
								{
									OFFSET 0.000000 0.000000 0.000000
								}
							}
						}
					}
				}
				JOINT rclavicle
				{
					OFFSET -0.082954 0.112472 -0.023707
					CHANNELS 3 Zrotation Yrotation Xrotation
					JOINT rshoulder
					{
						OFFSET -0.113228 0.046853 -0.008472
						CHANNELS 3 Zrotation Yrotation Xrotation
						JOINT relbow
						{
							OFFSET -0.260127 -0.014369 -0.031269
							CHANNELS 3 Zrotation Yrotation Xrotation
							JOINT rwrist
							{
								OFFSET -0.269108 0.006794 -0.006027
								CHANNELS 3 Zrotation Yrotation Xrotation
								End Site
								{
									OFFSET 0.000000 0.000000 0.000000
								}
							}
						}
					}
				}
			}
		}
	}
}
MOTION
Frames: 8
Frame Time: 0.033333
-0.208905 0.216507 0.926084 113.933490 -26.180155 141.521541 2.417883 -4.432026 -28.813455 -6.160200 -7.367832 13.280478 -11.792588 7.276025 15.649836 0.000000 -0.000000 0.000000 -25.909136 -15.072321 -78.969523 -1.404473 -16.846395 37.450786 4.115706 -11.786866 -7.158688 0.000000 -0.000000 0.000000 13.146155 -10.996438 50.227135 -6.075410 12.940268 0.571542 4.458060 2.693016 4.023698 -0.849252 -32.810394 0.051016 14.074561 1.762649 -24.527476 -21.988816 -19.530446 5.329077 -58.678645 -13.276723 25.942061 133.988756 -81.765009 -109.559545 23.724985 -12.565731 -26.251674 -12.187729 34.459328 0.957760 -23.939457 4.003486 -31.148866 2.919680 4.444319 -6.792482 -19.066289 20.149839 37.310129 
-0.208415 0.217564 0.930468 113.996060 -26.091691 141.057009 2.216302 -4.401645 -27.957187 -6.307556 -7.847363 14.124560 -11.789435 6.901723 16.142329 0.000000 -0.000000 0.000000 -25.698633 -14.693754 -77.877957 -1.504374 -16.597924 36.320188 3.890761 -11.436526 -6.599384 0.000000 -0.000000 0.000000 12.995877 -11.099606 50.107565 -6.125056 12.551500 0.172005 4.483430 2.852839 3.934087 -1.318436 -32.655172 0.816830 14.630238 1.806898 -24.152487 -21.772856 -19.262217 5.312295 -58.762598 -13.308122 25.605559 132.645715 -81.871177 -108.500922 23.613802 -12.328141 -26.326240 -11.426362 34.531301 1.962469 -20.785968 4.410981 -29.028209 3.268238 5.535088 -4.301508 -18.792766 20.381864 35.966031 
-0.207409 0.218429 0.935387 114.247851 -25.604089 139.957542 2.113559 -3.918323 -26.846312 -6.453953 -8.136558 15.083067 -12.096242 6.555325 16.279126 0.000000 -0.000000 0.000000 -25.206110 -13.810228 -76.194843 -1.727273 -16.560185 34.978323 3.768418 -11.135861 -6.246760 0.000000 -0.000000 0.000000 12.736333 -10.967461 50.202816 -6.093387 12.168348 -0.426634 4.547315 3.004998 3.905907 -1.438798 -32.158217 0.787716 14.915408 1.674887 -23.365914 -21.870220 -18.998526 5.456942 -58.611004 -13.136435 24.964291 128.929594 -82.162081 -105.085449 23.553303 -12.337398 -26.216338 -9.979414 34.605400 2.782123 -16.748354 5.450372 -26.695242 3.492682 6.813785 -1.717708 -18.412095 21.082760 35.438029 
-0.206867 0.220097 0.940561 114.670620 -25.149386 138.610497 1.862062 -3.654871 -25.868422 -6.447690 -7.967134 15.794891 -12.065659 6.127452 16.485568 0.000000 -0.000000 0.000000 -24.627673 -13.131179 -74.244465 -1.838924 -16.173110 33.603766 3.574262 -10.467021 -5.951733 0.000000 -0.000000 0.000000 12.589820 -10.798939 49.894318 -5.882997 11.621868 -0.923497 4.546569 3.175643 3.681110 -2.026908 -31.669677 1.013525 15.111607 1.296219 -22.740786 -22.281071 -18.655300 5.581857 -58.281959 -12.656598 24.330530 122.319895 -82.713294 -98.959362 22.938836 -12.635559 -25.866774 -7.718420 34.645289 3.885712 -12.248557 6.596335 -24.214801 3.407944 8.514012 0.316434 -17.266335 19.867138 34.658885 
-0.205731 0.221488 0.946848 115.068904 -24.256417 136.639160 1.714009 -3.197446 -24.503600 -6.389740 -7.689182 16.458599 -11.656633 5.750442 15.944261 0.000000 -0.000000 0.000000 -23.557986 -12.005868 -71.935935 -1.911187 -16.277938 32.320504 3.242839 -10.518377 -5.114870 0.000000 -0.000000 0.000000 12.258152 -10.439452 50.295992 -5.633047 11.145918 -1.855918 4.616144 3.502670 3.310193 -2.674767 -31.381931 0.847509 15.309385 1.011190 -21.706399 -22.812512 -18.321474 5.387260 -57.821225 -11.660859 23.885660 112.163264 -83.181124 -89.717098 21.070167 -12.832931 -24.695768 -5.179272 34.751845 4.497692 -7.212902 7.457941 -22.132952 2.763242 10.482975 -1.109729 -10.813464 14.623313 33.239330 
-0.203656 0.223441 0.954147 115.813155 -23.203756 133.784418 1.405069 -1.921404 -22.712089 -6.077173 -7.642510 17.097486 -11.415404 4.903362 14.830922 0.000000 -0.000000 0.000000 -22.024902 -10.746966 -68.563319 -2.065202 -15.733264 30.699891 2.910357 -10.095562 -4.621680 0.000000 -0.000000 0.000000 12.284784 -10.302231 50.878358 -5.215976 10.662852 -2.085816 4.610698 3.685629 2.652683 -3.208148 -31.331251 0.187456 15.319413 0.779985 -20.674447 -23.705301 -18.151808 5.005273 -56.971883 -10.351850 23.512704 98.513036 -83.307419 -77.085050 18.151631 -13.243047 -23.028397 -2.519343 34.858561 4.969436 -2.320171 7.785924 -20.833817 1.916107 11.571259 -5.982305 -1.358427 8.418246 28.919221 
-0.196232 0.227400 0.966605 118.087417 -20.718430 128.180854 2.691862 1.131471 -18.603643 -5.567530 -8.608060 17.530134 -12.663140 3.182839 13.088455 0.000000 -0.000000 0.000000 -17.404844 -9.395359 -62.009031 -2.675521 -15.061446 28.253566 2.333029 -8.854194 -4.487247 0.000000 -0.000000 0.000000 14.317027 -11.397830 54.780622 -5.149686 10.464130 -3.701154 4.456491 3.742573 1.968348 -4.089573 -31.608182 -0.841768 15.275582 1.166748 -18.833505 -25.480452 -18.085658 3.956623 -55.756545 -8.540346 23.187268 81.492755 -83.680553 -60.857372 15.497070 -13.511048 -21.751887 -0.069340 35.042109 3.679784 2.357546 6.574063 -19.062219 2.647664 11.571068 -10.344684 6.365532 4.732114 24.319229 
-0.189688 0.233307 0.980738 120.550374 -18.602524 122.124942 3.791400 3.664049 -14.292031 -5.394197 -10.660160 18.201296 -12.483557 0.831457 9.060435 0.000000 -0.000000 0.000000 -13.020885 -9.825689 -54.153353 -2.268920 -13.436231 24.889155 2.475349 -8.551989 -3.692102 0.000000 -0.000000 0.000000 16.183755 -13.171937 58.009800 -4.899922 10.220429 -4.310583 4.487217 3.700207 1.140638 -4.565297 -32.130363 -2.336267 15.286060 1.545006 -17.092897 -27.847819 -17.777134 2.974360 -53.690964 -6.808054 22.721710 63.345569 -84.222320 -43.085277 14.041484 -13.132651 -20.596306 2.521057 34.515984 2.762610 6.285685 4.290120 -16.570034 4.139209 12.464451 -13.021342 10.315367 3.441437 20.815201 
